<?xml version="1.0" encoding="UTF-8" standalone="no"?>
<!-- Created with Inkscape (http://www.inkscape.org/) -->

<svg
   xmlns:dc="http://purl.org/dc/elements/1.1/"
   xmlns:cc="http://creativecommons.org/ns#"
   xmlns:rdf="http://www.w3.org/1999/02/22-rdf-syntax-ns#"
   xmlns:svg="http://www.w3.org/2000/svg"
   xmlns="http://www.w3.org/2000/svg"
   xmlns:sodipodi="http://sodipodi.sourceforge.net/DTD/sodipodi-0.dtd"
   xmlns:inkscape="http://www.inkscape.org/namespaces/inkscape"
   width="800"
   height="800"
   id="svg2"
   version="1.1"
   inkscape:version="0.48.4 r9939"
   sodipodi:docname="5.svg">
  <defs
     id="defs4" />
  <sodipodi:namedview
     id="base"
     pagecolor="#ffffff"
     bordercolor="#666666"
     borderopacity="1.0"
     inkscape:pageopacity="0.0"
     inkscape:pageshadow="2"
     inkscape:zoom="0.087500002"
     inkscape:cx="-3251.2288"
     inkscape:cy="-1174.5508"
     inkscape:document-units="px"
     inkscape:current-layer="layer1"
     showgrid="false"
     inkscape:window-width="1280"
     inkscape:window-height="745"
     inkscape:window-x="-2"
     inkscape:window-y="-3"
     inkscape:window-maximized="1"
     showguides="true"
     inkscape:guide-bbox="true"
     inkscape:snap-global="false" />
  <metadata
     id="metadata7">
    <rdf:RDF>
      <cc:Work
         rdf:about="">
        <dc:format>image/svg+xml</dc:format>
        <dc:type
           rdf:resource="http://purl.org/dc/dcmitype/StillImage" />
        <dc:title />
      </cc:Work>
    </rdf:RDF>
  </metadata>
  <g
     inkscape:label="Ebene 1"
     inkscape:groupmode="layer"
     id="layer1"
     transform="translate(0,-252.36218)">
    <g
       id="g4435">
      <!-- <path
         id="path3917"
         transform="translate(0,252.36218)"
         d="M 112 0 C 50.5055 0 0 50.50551 0 112 L 0 688 C 0 749.49452 50.5055 800 112 800 L 688 800 C 749.4945 800 800 749.49452 800 688 L 800 112 C 800 50.50551 749.4945 0 688 0 L 112 0 z M 112 64 L 688 64 C 715.1455 64 736 84.85449 736 112 L 736 688 C 736 715.14551 715.1455 736 688 736 L 112 736 C 84.8545 736 64 715.14551 64 688 L 64 112 C 64 84.85449 84.8545 64 112 64 z "
         style="font-size:medium;font-style:normal;font-variant:normal;font-weight:normal;font-stretch:normal;text-indent:0;text-align:start;text-decoration:none;line-height:normal;letter-spacing:normal;word-spacing:normal;text-transform:none;direction:ltr;block-progression:tb;writing-mode:lr-tb;text-anchor:start;baseline-shift:baseline;color:#000000;fill:#000000;fill-opacity:1;stroke:none;stroke-width:64;marker:none;visibility:visible;display:inline;overflow:visible;enable-background:accumulate;font-family:Sans;-inkscape-font-specification:Sans" /> -->
      <g
         id="g4428">
        <path
           style="font-size:medium;font-style:normal;font-variant:normal;font-weight:normal;font-stretch:normal;text-indent:0;text-align:start;text-decoration:none;line-height:normal;letter-spacing:normal;word-spacing:normal;text-transform:none;direction:ltr;block-progression:tb;writing-mode:lr-tb;text-anchor:start;baseline-shift:baseline;color:#000000;fill:#00007c;fill-opacity:1;stroke:none;stroke-width:64;marker:none;visibility:visible;display:inline;overflow:visible;enable-background:accumulate;font-family:Sans;-inkscape-font-specification:Sans"
           d="m 399.991,733.16165 c -44.6313,0 -80.8121,-36.18085 -80.8121,-80.81219 0,-44.63134 36.1808,-80.81219 80.8121,-80.81219 44.6314,0 80.8122,36.18085 80.8122,80.81219 0,44.63134 -36.1808,80.81219 -80.8122,80.81219 z"
           id="path3913" />
        <path
           style="font-size:medium;font-style:normal;font-variant:normal;font-weight:normal;font-stretch:normal;text-indent:0;text-align:start;text-decoration:none;line-height:normal;letter-spacing:normal;word-spacing:normal;text-transform:none;direction:ltr;block-progression:tb;writing-mode:lr-tb;text-anchor:start;baseline-shift:baseline;color:#000000;fill:#00007c;fill-opacity:1;stroke:none;stroke-width:64;marker:none;visibility:visible;display:inline;overflow:visible;enable-background:accumulate;font-family:Sans;-inkscape-font-specification:Sans"
           d="m 592.991,926.16165 c -44.6313,0 -80.8121,-36.18085 -80.8121,-80.81219 0,-44.63134 36.1808,-80.81219 80.8121,-80.81219 44.6314,0 80.8122,36.18085 80.8122,80.81219 0,44.63134 -36.1808,80.81219 -80.8122,80.81219 z"
           id="path3911" />
        <path
           style="font-size:medium;font-style:normal;font-variant:normal;font-weight:normal;font-stretch:normal;text-indent:0;text-align:start;text-decoration:none;line-height:normal;letter-spacing:normal;word-spacing:normal;text-transform:none;direction:ltr;block-progression:tb;writing-mode:lr-tb;text-anchor:start;baseline-shift:baseline;color:#000000;fill:#00007c;fill-opacity:1;stroke:none;stroke-width:64;marker:none;visibility:visible;display:inline;overflow:visible;enable-background:accumulate;font-family:Sans;-inkscape-font-specification:Sans"
           d="m 592.991,540.16165 c -44.6313,0 -80.8121,-36.18085 -80.8121,-80.81219 0,-44.63134 36.1808,-80.81219 80.8121,-80.81219 44.6314,0 80.8122,36.18085 80.8122,80.81219 0,44.63134 -36.1808,80.81219 -80.8122,80.81219 z"
           id="path3909" />
        <path
           style="font-size:medium;font-style:normal;font-variant:normal;font-weight:normal;font-stretch:normal;text-indent:0;text-align:start;text-decoration:none;line-height:normal;letter-spacing:normal;word-spacing:normal;text-transform:none;direction:ltr;block-progression:tb;writing-mode:lr-tb;text-anchor:start;baseline-shift:baseline;color:#000000;fill:#00007c;fill-opacity:1;stroke:none;stroke-width:64;marker:none;visibility:visible;display:inline;overflow:visible;enable-background:accumulate;font-family:Sans;-inkscape-font-specification:Sans"
           d="m 287.8033,459.34946 c 0,44.63134 -36.1809,80.81219 -80.8122,80.81219 -44.6314,0 -80.8122,-36.18085 -80.8122,-80.81219 0,-44.63134 36.1808,-80.81219 80.8122,-80.81219 44.6313,0 80.8122,36.18085 80.8122,80.81219 z"
           id="path3907" />
        <path
           style="font-size:medium;font-style:normal;font-variant:normal;font-weight:normal;font-stretch:normal;text-indent:0;text-align:start;text-decoration:none;line-height:normal;letter-spacing:normal;word-spacing:normal;text-transform:none;direction:ltr;block-progression:tb;writing-mode:lr-tb;text-anchor:start;baseline-shift:baseline;color:#000000;fill:#00007c;fill-opacity:1;stroke:none;stroke-width:64;marker:none;visibility:visible;display:inline;overflow:visible;enable-background:accumulate;font-family:Sans;-inkscape-font-specification:Sans"
           d="m 287.8033,845.34944 c 0,44.63134 -36.1809,80.81219 -80.8122,80.81219 -44.6314,0 -80.8122,-36.18085 -80.8122,-80.81219 0,-44.63134 36.1808,-80.81219 80.8122,-80.81219 44.6313,0 80.8122,36.18085 80.8122,80.81219 z"
           id="rect3926" />
      </g>
    </g>
  </g>
</svg>
